<svg width="112" height="112" viewBox="0 0 112 112" xmlns="http://www.w3.org/2000/svg"><title>JW.devs</title><g fill="none" fill-rule="evenodd"><path fill="#464646" d="M0 0h112v112H0z"/><path d="M17.422 86.288v3.5h3.5v-3.5h-3.5zm8.733 3.5h6.589c4.918 0 9.363-2.932 9.363-11.255 0-6.463-3.72-9.71-9.552-9.71h-6.4v20.964zm2.49-18.948h3.72c4.067 0 7.22 1.86 7.22 8.292 0 5.643-2.617 8.638-6.778 8.638h-4.162V70.84zm17.75 18.947h11.948v-2.143h-9.458v-7.472h7.945v-2.144h-7.945v-7.061h9.237v-2.144H46.395v20.964zm23.234 0l7.093-20.964H74.2l-5.832 18.033-5.895-18.033h-2.617l7.093 20.964h2.68zm8.985-1.544c.851.693 3.657 1.923 6.684 1.923 4.413 0 7.061-2.207 7.061-6.148 0-3.972-2.963-5.075-5.863-5.99-2.712-.82-4.855-1.544-4.855-4.035 0-2.648 2.27-3.405 4.035-3.405 1.986 0 3.814.914 5.454 2.333l1.387-1.67c-1.482-1.482-3.972-2.807-6.81-2.807-3.94 0-6.652 2.302-6.652 5.801 0 3.878 2.964 5.013 5.99 5.833 2.522.693 4.73 1.513 4.73 4.035 0 3.215-2.302 3.878-4.414 3.878-2.491 0-4.73-1.135-5.707-1.797l-1.04 2.049zM22.186 54.31c1.288 1.4 4.48 3.192 8.848 3.192 6.328 0 9.072-3.136 9.296-8.512.112-2.016.112-4.2.112-6.216V19.59h-4.424v28.448c0 3.248-1.064 5.712-5.152 5.712-2.688 0-4.704-1.232-6.44-2.576l-2.24 3.136zm52.808 2.52h5.544l8.456-37.24H84.57l-6.944 31.864h-.056L70.402 22.67h-4.928l-7.056 28.784L51.25 19.59h-4.424l8.456 37.24h5.6l6.944-27.944h.056l7.112 27.944z" fill="#FFF"/></g></svg>